<mxfile host="app.diagrams.net" modified="2024-05-07T07:53:38.833Z" agent="Mozilla/5.0 (Windows NT 10.0; Win64; x64) AppleWebKit/537.36 (KHTML, like Gecko) Chrome/124.0.0.0 Safari/537.36" etag="11X24jvGgF7vAjSpCzht" version="24.3.1" type="device">
  <diagram name="Page-1" id="AXQzxZPeRJ-sjg1GJKHG">
    <mxGraphModel dx="1313" dy="663" grid="1" gridSize="10" guides="1" tooltips="1" connect="1" arrows="1" fold="1" page="1" pageScale="1" pageWidth="1169" pageHeight="827" background="#E0E0E0" math="0" shadow="0">
      <root>
        <mxCell id="0" />
        <mxCell id="1" parent="0" />
        <mxCell id="S1GzVRRmtlZRb4Uh5KsV-54" style="rounded=0;orthogonalLoop=1;jettySize=auto;html=1;exitX=0.5;exitY=0;exitDx=0;exitDy=0;entryX=0.5;entryY=1;entryDx=0;entryDy=0;endArrow=none;endFill=0;" edge="1" parent="1" source="S1GzVRRmtlZRb4Uh5KsV-52" target="S1GzVRRmtlZRb4Uh5KsV-2">
          <mxGeometry relative="1" as="geometry" />
        </mxCell>
        <mxCell id="S1GzVRRmtlZRb4Uh5KsV-56" style="rounded=0;orthogonalLoop=1;jettySize=auto;html=1;exitX=1;exitY=0.5;exitDx=0;exitDy=0;entryX=0;entryY=0.5;entryDx=0;entryDy=0;endArrow=none;endFill=0;" edge="1" parent="1" source="S1GzVRRmtlZRb4Uh5KsV-52" target="S1GzVRRmtlZRb4Uh5KsV-6">
          <mxGeometry relative="1" as="geometry" />
        </mxCell>
        <mxCell id="S1GzVRRmtlZRb4Uh5KsV-74" value="" style="group" vertex="1" connectable="0" parent="1">
          <mxGeometry x="30" y="164" width="310" height="250" as="geometry" />
        </mxCell>
        <mxCell id="S1GzVRRmtlZRb4Uh5KsV-1" value="ญาติผู้ป่วย รพสต&lt;br&gt;Patient Relative from HPH" style="rounded=0;whiteSpace=wrap;html=1;" vertex="1" parent="S1GzVRRmtlZRb4Uh5KsV-74">
          <mxGeometry x="130" y="90" width="120" height="60" as="geometry" />
        </mxCell>
        <mxCell id="S1GzVRRmtlZRb4Uh5KsV-13" value="P_name" style="ellipse;whiteSpace=wrap;html=1;" vertex="1" parent="S1GzVRRmtlZRb4Uh5KsV-74">
          <mxGeometry x="40" y="190" width="80" height="50" as="geometry" />
        </mxCell>
        <mxCell id="S1GzVRRmtlZRb4Uh5KsV-16" value="P_HN" style="ellipse;whiteSpace=wrap;html=1;" vertex="1" parent="S1GzVRRmtlZRb4Uh5KsV-74">
          <mxGeometry y="130" width="80" height="50" as="geometry" />
        </mxCell>
        <mxCell id="S1GzVRRmtlZRb4Uh5KsV-17" value="P_IDNo" style="ellipse;whiteSpace=wrap;html=1;" vertex="1" parent="S1GzVRRmtlZRb4Uh5KsV-74">
          <mxGeometry y="60" width="80" height="50" as="geometry" />
        </mxCell>
        <mxCell id="S1GzVRRmtlZRb4Uh5KsV-19" value="P_age" style="ellipse;whiteSpace=wrap;html=1;" vertex="1" parent="S1GzVRRmtlZRb4Uh5KsV-74">
          <mxGeometry x="80" y="20" width="80" height="50" as="geometry" />
        </mxCell>
        <mxCell id="S1GzVRRmtlZRb4Uh5KsV-20" value="P_address" style="ellipse;whiteSpace=wrap;html=1;" vertex="1" parent="S1GzVRRmtlZRb4Uh5KsV-74">
          <mxGeometry x="230" y="30" width="80" height="50" as="geometry" />
        </mxCell>
        <mxCell id="S1GzVRRmtlZRb4Uh5KsV-21" value="P_medhis" style="ellipse;whiteSpace=wrap;html=1;" vertex="1" parent="S1GzVRRmtlZRb4Uh5KsV-74">
          <mxGeometry x="160" width="80" height="50" as="geometry" />
        </mxCell>
        <mxCell id="S1GzVRRmtlZRb4Uh5KsV-47" value="phone" style="ellipse;whiteSpace=wrap;html=1;" vertex="1" parent="S1GzVRRmtlZRb4Uh5KsV-74">
          <mxGeometry x="210" y="200" width="80" height="50" as="geometry" />
        </mxCell>
        <mxCell id="S1GzVRRmtlZRb4Uh5KsV-48" value="R_name" style="ellipse;whiteSpace=wrap;html=1;" vertex="1" parent="S1GzVRRmtlZRb4Uh5KsV-74">
          <mxGeometry x="130" y="200" width="80" height="50" as="geometry" />
        </mxCell>
        <mxCell id="S1GzVRRmtlZRb4Uh5KsV-62" value="" style="endArrow=none;html=1;rounded=0;exitX=0.348;exitY=0.001;exitDx=0;exitDy=0;exitPerimeter=0;entryX=0.786;entryY=0.912;entryDx=0;entryDy=0;entryPerimeter=0;" edge="1" parent="S1GzVRRmtlZRb4Uh5KsV-74" source="S1GzVRRmtlZRb4Uh5KsV-1" target="S1GzVRRmtlZRb4Uh5KsV-19">
          <mxGeometry width="50" height="50" relative="1" as="geometry">
            <mxPoint x="420" y="190" as="sourcePoint" />
            <mxPoint x="470" y="140" as="targetPoint" />
          </mxGeometry>
        </mxCell>
        <mxCell id="S1GzVRRmtlZRb4Uh5KsV-63" value="" style="endArrow=none;html=1;rounded=0;exitX=0.348;exitY=0.001;exitDx=0;exitDy=0;exitPerimeter=0;entryX=0.5;entryY=1;entryDx=0;entryDy=0;" edge="1" parent="S1GzVRRmtlZRb4Uh5KsV-74" target="S1GzVRRmtlZRb4Uh5KsV-21">
          <mxGeometry width="50" height="50" relative="1" as="geometry">
            <mxPoint x="189" y="90" as="sourcePoint" />
            <mxPoint x="160" y="66" as="targetPoint" />
          </mxGeometry>
        </mxCell>
        <mxCell id="S1GzVRRmtlZRb4Uh5KsV-64" value="" style="endArrow=none;html=1;rounded=0;exitX=0.348;exitY=0.001;exitDx=0;exitDy=0;exitPerimeter=0;entryX=0.061;entryY=0.747;entryDx=0;entryDy=0;entryPerimeter=0;" edge="1" parent="S1GzVRRmtlZRb4Uh5KsV-74" target="S1GzVRRmtlZRb4Uh5KsV-20">
          <mxGeometry width="50" height="50" relative="1" as="geometry">
            <mxPoint x="210" y="90" as="sourcePoint" />
            <mxPoint x="221" y="50" as="targetPoint" />
          </mxGeometry>
        </mxCell>
        <mxCell id="S1GzVRRmtlZRb4Uh5KsV-65" value="" style="endArrow=none;html=1;rounded=0;exitX=0.348;exitY=0.001;exitDx=0;exitDy=0;exitPerimeter=0;entryX=1;entryY=1;entryDx=0;entryDy=0;" edge="1" parent="S1GzVRRmtlZRb4Uh5KsV-74" target="S1GzVRRmtlZRb4Uh5KsV-17">
          <mxGeometry width="50" height="50" relative="1" as="geometry">
            <mxPoint x="130" y="110" as="sourcePoint" />
            <mxPoint x="101" y="86" as="targetPoint" />
          </mxGeometry>
        </mxCell>
        <mxCell id="S1GzVRRmtlZRb4Uh5KsV-66" value="" style="endArrow=none;html=1;rounded=0;exitX=0.348;exitY=0.001;exitDx=0;exitDy=0;exitPerimeter=0;entryX=1;entryY=0.5;entryDx=0;entryDy=0;" edge="1" parent="S1GzVRRmtlZRb4Uh5KsV-74" target="S1GzVRRmtlZRb4Uh5KsV-16">
          <mxGeometry width="50" height="50" relative="1" as="geometry">
            <mxPoint x="130" y="130" as="sourcePoint" />
            <mxPoint x="101" y="106" as="targetPoint" />
          </mxGeometry>
        </mxCell>
        <mxCell id="S1GzVRRmtlZRb4Uh5KsV-67" value="" style="endArrow=none;html=1;rounded=0;exitX=0.348;exitY=0.001;exitDx=0;exitDy=0;exitPerimeter=0;entryX=1;entryY=0;entryDx=0;entryDy=0;" edge="1" parent="S1GzVRRmtlZRb4Uh5KsV-74" target="S1GzVRRmtlZRb4Uh5KsV-13">
          <mxGeometry width="50" height="50" relative="1" as="geometry">
            <mxPoint x="169" y="150" as="sourcePoint" />
            <mxPoint x="140" y="126" as="targetPoint" />
          </mxGeometry>
        </mxCell>
        <mxCell id="S1GzVRRmtlZRb4Uh5KsV-68" value="" style="endArrow=none;html=1;rounded=0;exitX=0.5;exitY=0;exitDx=0;exitDy=0;entryX=0.786;entryY=0.912;entryDx=0;entryDy=0;entryPerimeter=0;" edge="1" parent="S1GzVRRmtlZRb4Uh5KsV-74" source="S1GzVRRmtlZRb4Uh5KsV-48">
          <mxGeometry width="50" height="50" relative="1" as="geometry">
            <mxPoint x="214.5" y="174" as="sourcePoint" />
            <mxPoint x="185.5" y="150" as="targetPoint" />
          </mxGeometry>
        </mxCell>
        <mxCell id="S1GzVRRmtlZRb4Uh5KsV-69" value="" style="endArrow=none;html=1;rounded=0;exitX=0.387;exitY=0.014;exitDx=0;exitDy=0;exitPerimeter=0;entryX=0.786;entryY=0.912;entryDx=0;entryDy=0;entryPerimeter=0;" edge="1" parent="S1GzVRRmtlZRb4Uh5KsV-74" source="S1GzVRRmtlZRb4Uh5KsV-47">
          <mxGeometry width="50" height="50" relative="1" as="geometry">
            <mxPoint x="234.5" y="174" as="sourcePoint" />
            <mxPoint x="205.5" y="150" as="targetPoint" />
          </mxGeometry>
        </mxCell>
        <mxCell id="S1GzVRRmtlZRb4Uh5KsV-75" value="" style="group" vertex="1" connectable="0" parent="1">
          <mxGeometry x="350" y="130" width="285" height="183" as="geometry" />
        </mxCell>
        <mxCell id="S1GzVRRmtlZRb4Uh5KsV-10" value="ลงทะเบียนยืม&lt;br&gt;Register contract" style="rhombus;whiteSpace=wrap;html=1;" vertex="1" parent="S1GzVRRmtlZRb4Uh5KsV-75">
          <mxGeometry x="30" y="127" width="160" height="56" as="geometry" />
        </mxCell>
        <mxCell id="S1GzVRRmtlZRb4Uh5KsV-23" value="borrow_date" style="ellipse;whiteSpace=wrap;html=1;" vertex="1" parent="S1GzVRRmtlZRb4Uh5KsV-75">
          <mxGeometry x="60" width="80" height="50" as="geometry" />
        </mxCell>
        <mxCell id="S1GzVRRmtlZRb4Uh5KsV-24" value="return_date" style="ellipse;whiteSpace=wrap;html=1;" vertex="1" parent="S1GzVRRmtlZRb4Uh5KsV-75">
          <mxGeometry y="40" width="80" height="50" as="geometry" />
        </mxCell>
        <mxCell id="S1GzVRRmtlZRb4Uh5KsV-31" value="equipmentID" style="ellipse;whiteSpace=wrap;html=1;" vertex="1" parent="S1GzVRRmtlZRb4Uh5KsV-75">
          <mxGeometry x="150" y="10" width="80" height="50" as="geometry" />
        </mxCell>
        <mxCell id="S1GzVRRmtlZRb4Uh5KsV-32" value="equipment_name" style="ellipse;whiteSpace=wrap;html=1;" vertex="1" parent="S1GzVRRmtlZRb4Uh5KsV-75">
          <mxGeometry x="165" y="60" width="120" height="50" as="geometry" />
        </mxCell>
        <mxCell id="S1GzVRRmtlZRb4Uh5KsV-70" value="" style="endArrow=none;html=1;rounded=0;exitX=1;exitY=0;exitDx=0;exitDy=0;entryX=0;entryY=1;entryDx=0;entryDy=0;" edge="1" parent="S1GzVRRmtlZRb4Uh5KsV-75" source="S1GzVRRmtlZRb4Uh5KsV-10" target="S1GzVRRmtlZRb4Uh5KsV-32">
          <mxGeometry width="50" height="50" relative="1" as="geometry">
            <mxPoint x="150" y="140" as="sourcePoint" />
            <mxPoint x="175" y="117" as="targetPoint" />
          </mxGeometry>
        </mxCell>
        <mxCell id="S1GzVRRmtlZRb4Uh5KsV-71" value="" style="endArrow=none;html=1;rounded=0;exitX=0.599;exitY=0.098;exitDx=0;exitDy=0;exitPerimeter=0;entryX=0;entryY=1;entryDx=0;entryDy=0;" edge="1" parent="S1GzVRRmtlZRb4Uh5KsV-75" source="S1GzVRRmtlZRb4Uh5KsV-10" target="S1GzVRRmtlZRb4Uh5KsV-31">
          <mxGeometry width="50" height="50" relative="1" as="geometry">
            <mxPoint x="125" y="133" as="sourcePoint" />
            <mxPoint x="150" y="110" as="targetPoint" />
          </mxGeometry>
        </mxCell>
        <mxCell id="S1GzVRRmtlZRb4Uh5KsV-72" value="" style="endArrow=none;html=1;rounded=0;exitX=0.475;exitY=0.025;exitDx=0;exitDy=0;exitPerimeter=0;entryX=0.5;entryY=1;entryDx=0;entryDy=0;" edge="1" parent="S1GzVRRmtlZRb4Uh5KsV-75" source="S1GzVRRmtlZRb4Uh5KsV-10" target="S1GzVRRmtlZRb4Uh5KsV-23">
          <mxGeometry width="50" height="50" relative="1" as="geometry">
            <mxPoint x="104" y="130" as="sourcePoint" />
            <mxPoint x="140" y="51" as="targetPoint" />
          </mxGeometry>
        </mxCell>
        <mxCell id="S1GzVRRmtlZRb4Uh5KsV-73" value="" style="endArrow=none;html=1;rounded=0;exitX=0;exitY=0;exitDx=0;exitDy=0;entryX=0.5;entryY=1;entryDx=0;entryDy=0;" edge="1" parent="S1GzVRRmtlZRb4Uh5KsV-75" source="S1GzVRRmtlZRb4Uh5KsV-10" target="S1GzVRRmtlZRb4Uh5KsV-24">
          <mxGeometry width="50" height="50" relative="1" as="geometry">
            <mxPoint x="60" y="140" as="sourcePoint" />
            <mxPoint x="96" y="61" as="targetPoint" />
          </mxGeometry>
        </mxCell>
        <mxCell id="S1GzVRRmtlZRb4Uh5KsV-53" value="exam_result" style="ellipse;whiteSpace=wrap;html=1;" vertex="1" parent="1">
          <mxGeometry x="780" y="389" width="80" height="50" as="geometry" />
        </mxCell>
        <mxCell id="S1GzVRRmtlZRb4Uh5KsV-57" style="rounded=0;orthogonalLoop=1;jettySize=auto;html=1;exitX=0.5;exitY=1;exitDx=0;exitDy=0;entryX=0.715;entryY=0.212;entryDx=0;entryDy=0;entryPerimeter=0;endArrow=none;endFill=0;" edge="1" parent="1" source="S1GzVRRmtlZRb4Uh5KsV-53" target="S1GzVRRmtlZRb4Uh5KsV-52">
          <mxGeometry relative="1" as="geometry" />
        </mxCell>
        <mxCell id="S1GzVRRmtlZRb4Uh5KsV-95" value="" style="endArrow=none;html=1;rounded=0;exitX=1;exitY=0.5;exitDx=0;exitDy=0;entryX=0;entryY=0.5;entryDx=0;entryDy=0;" edge="1" parent="1" source="S1GzVRRmtlZRb4Uh5KsV-1" target="S1GzVRRmtlZRb4Uh5KsV-10">
          <mxGeometry width="50" height="50" relative="1" as="geometry">
            <mxPoint x="660" y="330" as="sourcePoint" />
            <mxPoint x="710" y="280" as="targetPoint" />
          </mxGeometry>
        </mxCell>
        <mxCell id="S1GzVRRmtlZRb4Uh5KsV-96" value="" style="endArrow=none;html=1;rounded=0;exitX=1;exitY=0.5;exitDx=0;exitDy=0;entryX=0.002;entryY=0.535;entryDx=0;entryDy=0;entryPerimeter=0;" edge="1" parent="1" source="S1GzVRRmtlZRb4Uh5KsV-10" target="S1GzVRRmtlZRb4Uh5KsV-2">
          <mxGeometry width="50" height="50" relative="1" as="geometry">
            <mxPoint x="370" y="340" as="sourcePoint" />
            <mxPoint x="670" y="285" as="targetPoint" />
          </mxGeometry>
        </mxCell>
        <mxCell id="S1GzVRRmtlZRb4Uh5KsV-97" value="" style="group" vertex="1" connectable="0" parent="1">
          <mxGeometry x="385" y="470" width="250" height="165" as="geometry" />
        </mxCell>
        <mxCell id="S1GzVRRmtlZRb4Uh5KsV-3" value="ญาติผู้ป่วย รพ อื่นๆ&lt;br&gt;Patient Relative from&lt;br&gt;Hospital" style="rounded=0;whiteSpace=wrap;html=1;" vertex="1" parent="S1GzVRRmtlZRb4Uh5KsV-97">
          <mxGeometry x="42.5" width="120" height="60" as="geometry" />
        </mxCell>
        <mxCell id="S1GzVRRmtlZRb4Uh5KsV-46" value="P_No" style="ellipse;whiteSpace=wrap;html=1;" vertex="1" parent="S1GzVRRmtlZRb4Uh5KsV-97">
          <mxGeometry x="170" y="105" width="80" height="50" as="geometry" />
        </mxCell>
        <mxCell id="S1GzVRRmtlZRb4Uh5KsV-50" value="R_name" style="ellipse;whiteSpace=wrap;html=1;" vertex="1" parent="S1GzVRRmtlZRb4Uh5KsV-97">
          <mxGeometry y="105" width="80" height="50" as="geometry" />
        </mxCell>
        <mxCell id="S1GzVRRmtlZRb4Uh5KsV-51" value="phone" style="ellipse;whiteSpace=wrap;html=1;" vertex="1" parent="S1GzVRRmtlZRb4Uh5KsV-97">
          <mxGeometry x="80" y="115" width="80" height="50" as="geometry" />
        </mxCell>
        <mxCell id="S1GzVRRmtlZRb4Uh5KsV-89" style="rounded=0;orthogonalLoop=1;jettySize=auto;html=1;exitX=0.415;exitY=0.996;exitDx=0;exitDy=0;entryX=1;entryY=0;entryDx=0;entryDy=0;endArrow=none;endFill=0;exitPerimeter=0;" edge="1" parent="S1GzVRRmtlZRb4Uh5KsV-97" source="S1GzVRRmtlZRb4Uh5KsV-3" target="S1GzVRRmtlZRb4Uh5KsV-50">
          <mxGeometry relative="1" as="geometry">
            <mxPoint x="106" y="80" as="sourcePoint" />
            <mxPoint x="40" y="114" as="targetPoint" />
          </mxGeometry>
        </mxCell>
        <mxCell id="S1GzVRRmtlZRb4Uh5KsV-90" style="rounded=0;orthogonalLoop=1;jettySize=auto;html=1;exitX=0.5;exitY=1;exitDx=0;exitDy=0;entryX=0.5;entryY=0;entryDx=0;entryDy=0;endArrow=none;endFill=0;" edge="1" parent="S1GzVRRmtlZRb4Uh5KsV-97" source="S1GzVRRmtlZRb4Uh5KsV-3" target="S1GzVRRmtlZRb4Uh5KsV-51">
          <mxGeometry relative="1" as="geometry">
            <mxPoint x="131" y="83" as="sourcePoint" />
            <mxPoint x="109" y="115" as="targetPoint" />
          </mxGeometry>
        </mxCell>
        <mxCell id="S1GzVRRmtlZRb4Uh5KsV-91" style="rounded=0;orthogonalLoop=1;jettySize=auto;html=1;exitX=0.613;exitY=1.001;exitDx=0;exitDy=0;entryX=0;entryY=0;entryDx=0;entryDy=0;endArrow=none;endFill=0;exitPerimeter=0;" edge="1" parent="S1GzVRRmtlZRb4Uh5KsV-97" source="S1GzVRRmtlZRb4Uh5KsV-3" target="S1GzVRRmtlZRb4Uh5KsV-46">
          <mxGeometry relative="1" as="geometry">
            <mxPoint x="120" y="80" as="sourcePoint" />
            <mxPoint x="140" y="115" as="targetPoint" />
          </mxGeometry>
        </mxCell>
        <mxCell id="S1GzVRRmtlZRb4Uh5KsV-2" value="พยาบาลวิชาชีพ&lt;br&gt;นักวิชาการสาธารณสุข&lt;br&gt;professional nurse&lt;br&gt;&amp;nbsp;Public Health Technical Officer" style="rounded=0;whiteSpace=wrap;html=1;" vertex="1" parent="1">
          <mxGeometry x="675" y="241.5" width="180" height="80" as="geometry" />
        </mxCell>
        <mxCell id="S1GzVRRmtlZRb4Uh5KsV-26" value="staff_name" style="ellipse;whiteSpace=wrap;html=1;" vertex="1" parent="1">
          <mxGeometry x="650" y="171.5" width="80" height="50" as="geometry" />
        </mxCell>
        <mxCell id="S1GzVRRmtlZRb4Uh5KsV-27" value="staff_position" style="ellipse;whiteSpace=wrap;html=1;" vertex="1" parent="1">
          <mxGeometry x="720" y="140" width="80" height="50" as="geometry" />
        </mxCell>
        <mxCell id="S1GzVRRmtlZRb4Uh5KsV-28" value="staff_department" style="ellipse;whiteSpace=wrap;html=1;" vertex="1" parent="1">
          <mxGeometry x="800" y="150" width="110" height="50" as="geometry" />
        </mxCell>
        <mxCell id="S1GzVRRmtlZRb4Uh5KsV-29" value="staff_phone" style="ellipse;whiteSpace=wrap;html=1;" vertex="1" parent="1">
          <mxGeometry x="880" y="196.5" width="80" height="50" as="geometry" />
        </mxCell>
        <mxCell id="S1GzVRRmtlZRb4Uh5KsV-30" value="staff_email" style="ellipse;whiteSpace=wrap;html=1;" vertex="1" parent="1">
          <mxGeometry x="900" y="256.5" width="80" height="50" as="geometry" />
        </mxCell>
        <mxCell id="S1GzVRRmtlZRb4Uh5KsV-76" style="rounded=0;orthogonalLoop=1;jettySize=auto;html=1;exitX=1;exitY=1;exitDx=0;exitDy=0;endArrow=none;endFill=0;entryX=0.25;entryY=0;entryDx=0;entryDy=0;" edge="1" parent="1" source="S1GzVRRmtlZRb4Uh5KsV-26" target="S1GzVRRmtlZRb4Uh5KsV-2">
          <mxGeometry relative="1" as="geometry">
            <mxPoint x="455" y="276.5" as="sourcePoint" />
            <mxPoint x="685" y="287.5" as="targetPoint" />
          </mxGeometry>
        </mxCell>
        <mxCell id="S1GzVRRmtlZRb4Uh5KsV-77" style="rounded=0;orthogonalLoop=1;jettySize=auto;html=1;exitX=0.5;exitY=1;exitDx=0;exitDy=0;endArrow=none;endFill=0;entryX=0.25;entryY=0;entryDx=0;entryDy=0;" edge="1" parent="1" source="S1GzVRRmtlZRb4Uh5KsV-27">
          <mxGeometry relative="1" as="geometry">
            <mxPoint x="675" y="204.5" as="sourcePoint" />
            <mxPoint x="742" y="241.5" as="targetPoint" />
          </mxGeometry>
        </mxCell>
        <mxCell id="S1GzVRRmtlZRb4Uh5KsV-78" style="rounded=0;orthogonalLoop=1;jettySize=auto;html=1;exitX=0.5;exitY=1;exitDx=0;exitDy=0;endArrow=none;endFill=0;entryX=0.25;entryY=0;entryDx=0;entryDy=0;" edge="1" parent="1" source="S1GzVRRmtlZRb4Uh5KsV-28">
          <mxGeometry relative="1" as="geometry">
            <mxPoint x="736.5" y="171.5" as="sourcePoint" />
            <mxPoint x="773.5" y="241.5" as="targetPoint" />
          </mxGeometry>
        </mxCell>
        <mxCell id="S1GzVRRmtlZRb4Uh5KsV-79" style="rounded=0;orthogonalLoop=1;jettySize=auto;html=1;exitX=0;exitY=1;exitDx=0;exitDy=0;endArrow=none;endFill=0;entryX=0.25;entryY=0;entryDx=0;entryDy=0;" edge="1" parent="1" source="S1GzVRRmtlZRb4Uh5KsV-29">
          <mxGeometry relative="1" as="geometry">
            <mxPoint x="855" y="181.5" as="sourcePoint" />
            <mxPoint x="808.5" y="241.5" as="targetPoint" />
          </mxGeometry>
        </mxCell>
        <mxCell id="S1GzVRRmtlZRb4Uh5KsV-80" style="rounded=0;orthogonalLoop=1;jettySize=auto;html=1;exitX=0;exitY=0.5;exitDx=0;exitDy=0;endArrow=none;endFill=0;entryX=0.25;entryY=0;entryDx=0;entryDy=0;" edge="1" parent="1" source="S1GzVRRmtlZRb4Uh5KsV-30">
          <mxGeometry relative="1" as="geometry">
            <mxPoint x="901.5" y="221.5" as="sourcePoint" />
            <mxPoint x="855" y="281.5" as="targetPoint" />
          </mxGeometry>
        </mxCell>
        <mxCell id="S1GzVRRmtlZRb4Uh5KsV-98" style="edgeStyle=orthogonalEdgeStyle;rounded=0;orthogonalLoop=1;jettySize=auto;html=1;exitX=0;exitY=0.5;exitDx=0;exitDy=0;entryX=0.996;entryY=0.441;entryDx=0;entryDy=0;entryPerimeter=0;endArrow=none;endFill=0;" edge="1" parent="1" source="S1GzVRRmtlZRb4Uh5KsV-52" target="S1GzVRRmtlZRb4Uh5KsV-3">
          <mxGeometry relative="1" as="geometry" />
        </mxCell>
        <mxCell id="S1GzVRRmtlZRb4Uh5KsV-105" style="rounded=0;orthogonalLoop=1;jettySize=auto;html=1;exitX=1;exitY=0;exitDx=0;exitDy=0;entryX=0.25;entryY=1;entryDx=0;entryDy=0;endArrow=none;endFill=0;" edge="1" parent="1" source="S1GzVRRmtlZRb4Uh5KsV-36" target="S1GzVRRmtlZRb4Uh5KsV-6">
          <mxGeometry relative="1" as="geometry" />
        </mxCell>
        <mxCell id="S1GzVRRmtlZRb4Uh5KsV-36" value="equipmentStatus" style="ellipse;whiteSpace=wrap;html=1;" vertex="1" parent="1">
          <mxGeometry x="910" y="600" width="110" height="50" as="geometry" />
        </mxCell>
        <mxCell id="S1GzVRRmtlZRb4Uh5KsV-6" value="อุปกรณ์ทางการแพทย์&lt;div&gt;medical equipment&lt;/div&gt;" style="rounded=0;whiteSpace=wrap;html=1;" vertex="1" parent="1">
          <mxGeometry x="995" y="468" width="120" height="60" as="geometry" />
        </mxCell>
        <mxCell id="S1GzVRRmtlZRb4Uh5KsV-109" style="rounded=0;orthogonalLoop=1;jettySize=auto;html=1;exitX=1;exitY=0;exitDx=0;exitDy=0;entryX=0;entryY=1;entryDx=0;entryDy=0;endArrow=none;endFill=0;" edge="1" parent="1" source="S1GzVRRmtlZRb4Uh5KsV-35" target="S1GzVRRmtlZRb4Uh5KsV-6">
          <mxGeometry relative="1" as="geometry" />
        </mxCell>
        <mxCell id="S1GzVRRmtlZRb4Uh5KsV-35" value="equipment_name" style="ellipse;whiteSpace=wrap;html=1;" vertex="1" parent="1">
          <mxGeometry x="880" y="550" width="120" height="50" as="geometry" />
        </mxCell>
        <mxCell id="S1GzVRRmtlZRb4Uh5KsV-39" value="equipmentPic" style="ellipse;whiteSpace=wrap;html=1;" vertex="1" parent="1">
          <mxGeometry x="1080" y="554.5" width="80" height="50" as="geometry" />
        </mxCell>
        <mxCell id="S1GzVRRmtlZRb4Uh5KsV-110" style="rounded=0;orthogonalLoop=1;jettySize=auto;html=1;exitX=0.5;exitY=1;exitDx=0;exitDy=0;entryX=0.25;entryY=0;entryDx=0;entryDy=0;endArrow=none;endFill=0;" edge="1" parent="1" source="S1GzVRRmtlZRb4Uh5KsV-41" target="S1GzVRRmtlZRb4Uh5KsV-6">
          <mxGeometry relative="1" as="geometry" />
        </mxCell>
        <mxCell id="S1GzVRRmtlZRb4Uh5KsV-41" value="equipmentModel" style="ellipse;whiteSpace=wrap;html=1;" vertex="1" parent="1">
          <mxGeometry x="970" y="364" width="100" height="50" as="geometry" />
        </mxCell>
        <mxCell id="S1GzVRRmtlZRb4Uh5KsV-111" style="edgeStyle=orthogonalEdgeStyle;rounded=0;orthogonalLoop=1;jettySize=auto;html=1;exitX=0.5;exitY=1;exitDx=0;exitDy=0;entryX=0.75;entryY=0;entryDx=0;entryDy=0;endArrow=none;endFill=0;" edge="1" parent="1" source="S1GzVRRmtlZRb4Uh5KsV-40" target="S1GzVRRmtlZRb4Uh5KsV-6">
          <mxGeometry relative="1" as="geometry" />
        </mxCell>
        <mxCell id="S1GzVRRmtlZRb4Uh5KsV-40" value="equipmentS/N" style="ellipse;whiteSpace=wrap;html=1;" vertex="1" parent="1">
          <mxGeometry x="1050" y="400" width="80" height="50" as="geometry" />
        </mxCell>
        <mxCell id="S1GzVRRmtlZRb4Uh5KsV-52" value="ประเมินผู้ป่วย&lt;br&gt;Examiation patient" style="rhombus;whiteSpace=wrap;html=1;" vertex="1" parent="1">
          <mxGeometry x="685" y="466" width="155" height="60" as="geometry" />
        </mxCell>
        <mxCell id="S1GzVRRmtlZRb4Uh5KsV-59" value="exam_pic" style="ellipse;whiteSpace=wrap;html=1;" vertex="1" parent="1">
          <mxGeometry x="860" y="420" width="80" height="50" as="geometry" />
        </mxCell>
        <mxCell id="S1GzVRRmtlZRb4Uh5KsV-82" style="rounded=0;orthogonalLoop=1;jettySize=auto;html=1;exitX=0;exitY=1;exitDx=0;exitDy=0;entryX=0.842;entryY=0.343;entryDx=0;entryDy=0;entryPerimeter=0;endArrow=none;endFill=0;" edge="1" parent="1" source="S1GzVRRmtlZRb4Uh5KsV-59" target="S1GzVRRmtlZRb4Uh5KsV-52">
          <mxGeometry relative="1" as="geometry">
            <mxPoint x="886" y="480" as="sourcePoint" />
            <mxPoint x="820" y="514" as="targetPoint" />
          </mxGeometry>
        </mxCell>
        <mxCell id="S1GzVRRmtlZRb4Uh5KsV-107" style="rounded=0;orthogonalLoop=1;jettySize=auto;html=1;exitX=0;exitY=0;exitDx=0;exitDy=0;entryX=0.5;entryY=1;entryDx=0;entryDy=0;endArrow=none;endFill=0;" edge="1" parent="1" source="S1GzVRRmtlZRb4Uh5KsV-34" target="S1GzVRRmtlZRb4Uh5KsV-6">
          <mxGeometry relative="1" as="geometry" />
        </mxCell>
        <mxCell id="S1GzVRRmtlZRb4Uh5KsV-34" value="equipmentID" style="ellipse;whiteSpace=wrap;html=1;" vertex="1" parent="1">
          <mxGeometry x="1030" y="604.5" width="80" height="50" as="geometry" />
        </mxCell>
        <mxCell id="S1GzVRRmtlZRb4Uh5KsV-108" style="rounded=0;orthogonalLoop=1;jettySize=auto;html=1;exitX=0;exitY=0;exitDx=0;exitDy=0;entryX=0.725;entryY=1;entryDx=0;entryDy=0;entryPerimeter=0;endArrow=none;endFill=0;" edge="1" parent="1" source="S1GzVRRmtlZRb4Uh5KsV-39" target="S1GzVRRmtlZRb4Uh5KsV-6">
          <mxGeometry relative="1" as="geometry" />
        </mxCell>
      </root>
    </mxGraphModel>
  </diagram>
</mxfile>
